<svg width="32" height="32" viewBox="0 0 248 248" fill="none" xmlns="http://www.w3.org/2000/svg">
<path d="M42.2687 87.3414C41.0841 86.8106 40.5515 85.4182 41.1124 84.2476C48.4342 68.9684 59.848 55.9971 74.1059 46.7878C89.0225 37.1529 106.412 32.0489 124.17 32.0937C141.928 32.1385 159.292 37.3301 174.16 47.0401C188.371 56.3212 199.719 69.3498 206.964 84.6658C207.519 85.8392 206.979 87.2288 205.792 87.7537V87.7537C204.605 88.2785 203.219 87.7398 202.663 86.5671C195.787 72.0821 185.039 59.76 171.589 50.9759C157.482 41.7629 141.007 36.837 124.158 36.7945C107.309 36.752 90.8096 41.5948 76.6564 50.7365C63.1621 59.4527 52.3527 71.7205 45.4037 86.1706C44.8411 87.3405 43.4533 87.8722 42.2687 87.3414V87.3414Z" fill="black"/>
<path d="M205.64 160.465C206.825 160.995 207.359 162.386 206.799 163.558C199.632 178.547 188.525 191.327 174.647 200.516C160.116 210.139 143.146 215.428 125.721 215.766C108.296 216.105 91.1337 211.478 76.2398 202.426C62.016 193.782 50.4214 181.444 42.678 166.743C42.073 165.595 42.5525 164.183 43.7161 163.608V163.608C44.8797 163.033 46.2867 163.511 46.8932 164.659C54.2402 178.56 65.2196 190.228 78.6811 198.409C92.8128 206.997 109.096 211.387 125.63 211.066C142.163 210.745 158.264 205.727 172.052 196.597C185.186 187.9 195.704 175.814 202.506 161.638C203.068 160.468 204.455 159.935 205.64 160.465V160.465Z" fill="black"/>
<path d="M53.1953 91.171C52.1611 90.6965 51.7051 89.4719 52.2059 88.4502C58.6161 75.373 68.4606 64.2668 80.7029 56.3308C93.5221 48.0209 108.441 43.5299 123.717 43.3824C138.994 43.2349 153.996 47.437 166.974 55.4979C179.367 63.1961 189.424 74.1101 196.085 87.0612C196.606 88.073 196.174 89.3061 195.149 89.8005V89.8005C194.124 90.2949 192.895 89.8633 192.373 88.8521C186.052 76.605 176.528 66.2837 164.799 58.9981C152.486 51.3498 138.251 47.3628 123.757 47.5027C109.263 47.6426 95.1073 51.9038 82.9443 59.7884C71.3581 67.2991 62.0354 77.8023 55.9523 90.1692C55.4501 91.1902 54.2295 91.6455 53.1953 91.171V91.171Z" fill="black"/>
<path d="M195.794 156.599C196.828 157.073 197.284 158.298 196.783 159.319C190.373 172.397 180.528 183.503 168.286 191.439C155.467 199.749 140.548 204.24 125.272 204.387C109.995 204.535 94.9925 200.333 82.0153 192.272C69.6221 184.574 59.5649 173.66 52.9035 160.709C52.383 159.697 52.8154 158.464 53.8402 157.969V157.969C54.865 157.475 56.0941 157.906 56.616 158.918C62.9367 171.165 72.4605 181.486 84.1895 188.772C96.5025 196.42 110.737 200.407 125.232 200.267C139.726 200.127 153.882 195.866 166.045 187.981C177.631 180.471 186.954 169.967 193.037 157.601C193.539 156.58 194.759 156.124 195.794 156.599V156.599Z" fill="black"/>
<path d="M62.0482 96.1697C61.1561 95.77 60.7548 94.7215 61.1771 93.8399C66.583 82.5553 74.9547 72.9376 85.4108 66.0249C96.3597 58.7864 109.142 54.8126 122.265 54.5676C135.388 54.3227 148.31 57.8166 159.521 64.6415C170.228 71.1592 178.953 80.4578 184.776 91.5327C185.231 92.398 184.869 93.4607 183.993 93.8934V93.8934C183.116 94.3261 182.057 93.9648 181.601 93.1001C176.076 82.6273 167.814 73.8338 157.681 67.6654C147.043 61.1899 134.783 57.8747 122.331 58.1071C109.88 58.3396 97.7517 62.11 87.3632 68.978C77.4674 75.5202 69.5394 84.616 64.409 95.2877C63.9854 96.1687 62.9404 96.5693 62.0482 96.1697V96.1697Z" fill="black"/>
<path d="M185.064 151.276C185.956 151.676 186.357 152.724 185.935 153.606C180.529 164.89 172.157 174.508 161.701 181.421C150.752 188.659 137.97 192.633 124.847 192.878C111.724 193.123 98.8021 189.629 87.5907 182.804C76.8838 176.287 68.159 166.988 62.3358 155.913C61.8808 155.048 62.2427 153.985 63.1193 153.552V153.552C63.996 153.12 65.0553 153.481 65.5114 154.346C71.0365 164.818 79.2984 173.612 89.4315 179.78C100.069 186.256 112.329 189.571 124.781 189.339C137.232 189.106 149.36 185.336 159.749 178.468C169.645 171.926 177.573 162.83 182.703 152.158C183.127 151.277 184.172 150.876 185.064 151.276V151.276Z" fill="black"/>
<path d="M64.6475 116.798H52.5154C52.2938 115.228 51.8414 113.834 51.1581 112.615C50.4749 111.378 49.5978 110.326 48.5267 109.458C47.4557 108.59 46.2185 107.925 44.8151 107.463C43.4301 107.002 41.9252 106.771 40.3002 106.771C37.3641 106.771 34.8066 107.5 32.6276 108.959C30.4486 110.4 28.759 112.505 27.5587 115.275C26.3584 118.026 25.7583 121.368 25.7583 125.302C25.7583 129.346 26.3584 132.743 27.5587 135.495C28.7774 138.246 30.4763 140.324 32.6553 141.727C34.8343 143.13 37.3549 143.832 40.2171 143.832C41.8236 143.832 43.3101 143.62 44.6766 143.195C46.0615 142.77 47.2895 142.152 48.3605 141.339C49.4316 140.508 50.3179 139.502 51.0196 138.32C51.7398 137.138 52.2384 135.79 52.5154 134.276L64.6475 134.331C64.3335 136.935 63.5487 139.446 62.2931 141.865C61.0558 144.266 59.3847 146.417 57.2796 148.319C55.1929 150.203 52.7 151.699 49.8009 152.807C46.9202 153.896 43.661 154.441 40.0232 154.441C34.9635 154.441 30.4394 153.296 26.4507 151.006C22.4806 148.716 19.3414 145.402 17.0331 141.062C14.7433 136.723 13.5985 131.469 13.5985 125.302C13.5985 119.115 14.7618 113.853 17.0885 109.513C19.4152 105.174 22.5729 101.868 26.5615 99.597C30.5502 97.3072 35.0374 96.1623 40.0232 96.1623C43.3101 96.1623 46.357 96.624 49.1638 97.5473C51.9891 98.4706 54.4912 99.8186 56.6702 101.591C58.8492 103.346 60.6219 105.497 61.9884 108.045C63.3733 110.593 64.2597 113.511 64.6475 116.798ZM123.3 116.798H111.168C110.946 115.228 110.494 113.834 109.81 112.615C109.127 111.378 108.25 110.326 107.179 109.458C106.108 108.59 104.871 107.925 103.467 107.463C102.082 107.002 100.578 106.771 98.9525 106.771C96.0164 106.771 93.4589 107.5 91.2799 108.959C89.1009 110.4 87.4113 112.505 86.211 115.275C85.0107 118.026 84.4106 121.368 84.4106 125.302C84.4106 129.346 85.0107 132.743 86.211 135.495C87.4298 138.246 89.1286 140.324 91.3076 141.727C93.4866 143.13 96.0072 143.832 98.8694 143.832C100.476 143.832 101.962 143.62 103.329 143.195C104.714 142.77 105.942 142.152 107.013 141.339C108.084 140.508 108.97 139.502 109.672 138.32C110.392 137.138 110.891 135.79 111.168 134.276L123.3 134.331C122.986 136.935 122.201 139.446 120.945 141.865C119.708 144.266 118.037 146.417 115.932 148.319C113.845 150.203 111.352 151.699 108.453 152.807C105.573 153.896 102.313 154.441 98.6755 154.441C93.6159 154.441 89.0917 153.296 85.1031 151.006C81.1329 148.716 77.9937 145.402 75.6855 141.062C73.3957 136.723 72.2508 131.469 72.2508 125.302C72.2508 119.115 73.4142 113.853 75.7409 109.513C78.0676 105.174 81.2252 101.868 85.2139 99.597C89.2025 97.3072 93.6897 96.1623 98.6755 96.1623C101.962 96.1623 105.009 96.624 107.816 97.5473C110.641 98.4706 113.144 99.8186 115.323 101.591C117.502 103.346 119.274 105.497 120.641 108.045C122.026 110.593 122.912 113.511 123.3 116.798ZM129.74 106.826V96.9379H176.329V106.826H158.962V153.665H147.107V106.826H129.74ZM194.25 96.9379L207.961 140.037H208.488L222.226 96.9379H235.522L215.966 153.665H200.51L180.927 96.9379H194.25Z" fill="#00BDA6"/>
</svg>
